# xmcd
#
# Track frame offsets:
#	150
#	15520
#	26703
#	36168
#	46062
#	56218
#	65301
#	77053
#	88472
#	95049
#	103622
#	116827
#	129211
#	136496
#	147221
#	162592
#	173774
#	183241
#	193135
#	203293
#	212377
#	224126
#	235548
#	242123
#	250696
#	263880
#	276266
#	283551
#
# Disc length: 3922 seconds
#
# Revision: 0
# Processed by: cddbd v1.5.2PL0 Copyright (c) Steve Scherf et al.
# Submitted via: EasyCDDAExtractor 2010.6.0.0
#
DISCID=9a0f501c
DTITLE=Ron'ell Erasmus - Die Liedboek
DYEAR=1900
DGENRE=gospel
TTITLE0=Ek Weet Verseker
TTITLE1=Ek Sien 'n Nuwe Hemel Kom
TTITLE2=Genade Onbeskryflik Groot
TTITLE3=Loof Die Heer Hy Is Goed
TTITLE4=Grote God Aan U Die Eer
TTITLE5=Helder Skyn Ons Lig Vir Die Nasies
TTITLE6=Nader My God By U
TTITLE7=Majesteit
TTITLE8=U Het Die Brood Gebreek
TTITLE9=Jesus Groot Bo Almal
TTITLE10=Soek Allereers Die Koningkryk Van God
TTITLE11=Soek In God Jou Sterkte
TTITLE12=My Enigste Troos
TTITLE13=Voel Jy Soms Of Die Here Te Ver Is
TTITLE14=Backtrack  - Ek Weet Verseker
TTITLE15=Backtrack  - Ek Sien 'n Nuwe Hemel Kom
TTITLE16=Backtrack  - Genade Onbeskryflik Groot
TTITLE17=Backtrack  - Loof Die Heer Hy Is Goed
TTITLE18=Backtrack  - Grote God Aan U Die Eer
TTITLE19=Backtrack  - Helder Skyn Ons Lig Vir Die Nasies
TTITLE20=Backtrack  - Nader My God By U
TTITLE21=Backtrack  - Majesteit
TTITLE22=Backtrack  - U Het Die Brood Gebreek
TTITLE23=Backtrack  - Jesus Groot Bo Almal
TTITLE24=Backtrack  - Soek Allereers Die Koningkryk Van God
TTITLE25=Backtrack  - Soek In God Jou Sterkte
TTITLE26=Backtrack  - My Enigste Troos
TTITLE27=Backtrack  - Voel Jy Soms Of Die Here Te Ver Is
EXTD=
EXTT0=
EXTT1=
EXTT2=
EXTT3=
EXTT4=
EXTT5=
EXTT6=
EXTT7=
EXTT8=
EXTT9=
EXTT10=
EXTT11=
EXTT12=
EXTT13=
EXTT14=
EXTT15=
EXTT16=
EXTT17=
EXTT18=
EXTT19=
EXTT20=
EXTT21=
EXTT22=
EXTT23=
EXTT24=
EXTT25=
EXTT26=
EXTT27=
PLAYORDER=
